<!-- phone_svgrepo_com -->
<svg xmlns="http://www.w3.org/2000/svg" width="18" height="18">
  <path d="M 17.788 13.636 C 17.119 12.371 14.794 10.999 14.692 10.939 C 14.393 10.769 14.082 10.679 13.79 10.679 C 13.356 10.679 13.001 10.877 12.786 11.239 C 12.446 11.645 12.025 12.121 11.922 12.194 C 11.13 12.732 10.51 12.671 9.824 11.985 L 5.996 8.156 C 5.314 7.474 5.251 6.846 5.785 6.059 C 5.86 5.956 6.335 5.534 6.742 5.193 C 7.001 5.039 7.179 4.81 7.257 4.528 C 7.361 4.154 7.284 3.714 7.04 3.285 C 6.982 3.186 5.609 0.861 4.345 0.192 C 4.108 0.067 3.844 0.002 3.576 0.001 C 3.139 0 2.721 0.174 2.413 0.483 L 1.567 1.329 C 0.229 2.666 -0.256 4.183 0.126 5.835 C 0.445 7.213 1.374 8.678 2.887 10.191 L 7.789 15.093 C 9.704 17.008 11.53 17.98 13.216 17.98 C 14.456 17.98 15.612 17.453 16.651 16.414 L 17.497 15.568 C 18.01 15.059 18.128 14.274 17.788 13.636 Z" fill="rgb(0,206,209)"></path>
  <path d="M 9.853 8.309 C 9.894 8.326 9.937 8.334 9.981 8.334 L 13.981 8.334 C 14.165 8.334 14.314 8.185 14.314 8.001 C 14.314 7.817 14.165 7.668 13.981 7.668 L 10.785 7.668 L 15.883 2.57 C 16.013 2.44 16.013 2.229 15.883 2.099 C 15.753 1.969 15.542 1.969 15.412 2.099 L 10.314 7.196 L 10.314 4.001 C 10.314 3.817 10.165 3.668 9.981 3.668 C 9.797 3.668 9.647 3.817 9.647 4.001 L 9.647 8.001 C 9.648 8.136 9.729 8.257 9.853 8.309 Z" fill="rgb(0,206,209)"></path>
</svg>